<svg width="125" height="125" viewBox="0 0 125 125" fill="none" xmlns="http://www.w3.org/2000/svg">
<circle cx="62.5" cy="62.5" r="62" fill="#F4F4F4" stroke="black"/>
<path d="M124.5 62.9862C124.5 71.6709 123.495 77.26 121.307 80.7897C119.152 84.2655 115.796 85.8221 110.822 86.2866C105.818 86.7538 99.2802 86.1061 90.8714 85.2476L90.4028 85.1998C82.103 84.3521 72.0524 83.3256 60.0135 83.0002C50.7292 82.7493 42.3271 83.5193 34.9651 84.2672C34.3584 84.3289 33.7591 84.3903 33.1671 84.451C26.5575 85.1286 20.8701 85.7116 16.1565 85.414C11.0357 85.0906 7.17343 83.733 4.56484 80.4172C1.93617 77.0759 0.5 71.6487 0.5 62.9862C0.5 28.4724 28.262 0.5 62.5 0.5C96.738 0.5 124.5 28.4724 124.5 62.9862Z" fill="#FA5542" stroke="black"/>
<path d="M17.5 58L17.5 40.8486L48.4581 58H17.5Z" fill="white" stroke="black"/>
<path d="M38.7626 53.6315V53.8873C38.3574 54.1556 37.6662 54.4295 36.9094 54.4295C35.3519 54.4295 34.26 53.4548 34.1989 52.424C34.3624 52.0148 34.4491 51.7134 34.4998 51.4909C34.6813 51.5148 34.9228 51.535 35.2462 51.535C36.0373 51.535 36.9531 51.7981 37.6624 52.2241C38.3961 52.6648 38.7626 53.1829 38.7626 53.6315Z" fill="black" stroke="black"/>
<path d="M104.5 58.75L104.5 38.9322L74.6568 58.75H104.5Z" fill="white" stroke="black"/>
<path d="M87.2292 51.5515C87.3058 51.6711 87.3952 51.8454 87.4982 52.0931C87.4472 53.4071 86.3272 54.4821 84.9208 54.4821C84.4918 54.4821 84.1413 54.4794 83.847 54.4526C83.5508 54.4256 83.3546 54.3772 83.2212 54.3105C83.1041 54.2519 83.0255 54.175 82.9666 54.0469C82.9168 53.9387 82.8758 53.7815 82.8586 53.5509C83.5438 53.0765 83.7207 53.0482 83.8236 53.0317C83.8264 53.0313 83.8291 53.0308 83.8318 53.0304C83.8443 53.0284 83.8579 53.0263 83.8725 53.0241C83.973 53.009 84.1233 52.9863 84.3245 52.9068C84.5191 52.8299 84.7546 52.7042 85.079 52.494C85.5622 52.4593 85.9503 52.2698 86.2578 52.063C86.4257 51.95 86.5743 51.8286 86.6992 51.7244C86.7215 51.7057 86.7427 51.688 86.763 51.6709C86.8635 51.5867 86.9414 51.5214 87.016 51.4675C87.0581 51.437 87.0906 51.4167 87.1157 51.4034C87.1189 51.4065 87.1223 51.41 87.1259 51.4139C87.1522 51.4418 87.1869 51.4854 87.2292 51.5515Z" fill="black" stroke="black"/>
<path d="M32.5 33C47.8431 40.7447 62.2022 40.5318 49 59" stroke="black"/>
<path d="M99 35C74.9509 42.149 52.4441 41.9525 73.1375 59" stroke="black"/>
</svg>
